<?xml version="1.0" encoding="UTF-8" standalone="no"?>
<!-- Created with Inkscape (http://www.inkscape.org/) -->

<svg
   xmlns:dc="http://purl.org/dc/elements/1.1/"
   xmlns:cc="http://creativecommons.org/ns#"
   xmlns:rdf="http://www.w3.org/1999/02/22-rdf-syntax-ns#"
   xmlns:svg="http://www.w3.org/2000/svg"
   xmlns="http://www.w3.org/2000/svg"
   xmlns:xlink="http://www.w3.org/1999/xlink"
   xmlns:sodipodi="http://sodipodi.sourceforge.net/DTD/sodipodi-0.dtd"
   xmlns:inkscape="http://www.inkscape.org/namespaces/inkscape"
   width="52mm"
   height="25mm"
   viewBox="0 0 52 25"
   version="1.1"
   id="svg1193"
   inkscape:version="0.92.5 (2060ec1f9f, 2020-04-08)"
   sodipodi:docname="riboss_logo.svg">
  <defs
     id="defs1187">
    <radialGradient
       inkscape:collect="always"
       xlink:href="#linearGradient5555"
       id="radialGradient5561-8-5-3-7-8-9-50-2-2-7-0"
       cx="225.119"
       cy="133.786"
       fx="225.119"
       fy="133.786"
       r="32.1341"
       gradientTransform="matrix(0.139991,-0.009789,0.008552,0.122292,-0.825292,736.186)"
       gradientUnits="userSpaceOnUse" />
    <linearGradient
       id="linearGradient5555"
       inkscape:collect="always">
      <stop
         id="stop5557"
         offset="0"
         style="stop-color:#ffdf9e;stop-opacity:1" />
      <stop
         id="stop5559"
         offset="1"
         style="stop-color:#ffa760;stop-opacity:1" />
    </linearGradient>
    <radialGradient
       inkscape:collect="always"
       xlink:href="#linearGradient5555"
       id="radialGradient5561-8-5-7-9-7-4-7-1-5-6"
       cx="225.119"
       cy="133.786"
       fx="225.119"
       fy="133.786"
       r="32.1341"
       gradientTransform="matrix(0.232538,0,0,-0.134572,-21.2748,761.871)"
       gradientUnits="userSpaceOnUse" />
    <linearGradient
       inkscape:collect="always"
       xlink:href="#linearGradient998"
       id="linearGradient1185"
       gradientUnits="userSpaceOnUse"
       x1="47.7537"
       y1="126.521"
       x2="50.7388"
       y2="123.335"
       gradientTransform="matrix(-2.23738,0,0,-2.23738,131.589,569.618)" />
    <linearGradient
       inkscape:collect="always"
       id="linearGradient998">
      <stop
         style="stop-color:#ffffff;stop-opacity:1"
         offset="0"
         id="stop992" />
      <stop
         id="stop994"
         offset="0.645382"
         style="stop-color:#151336;stop-opacity:1" />
      <stop
         style="stop-color:#11192e;stop-opacity:1"
         offset="1"
         id="stop996" />
    </linearGradient>
    <linearGradient
       inkscape:collect="always"
       xlink:href="#linearGradient1061"
       id="linearGradient1099-2"
       gradientUnits="userSpaceOnUse"
       x1="46.9222"
       y1="131.803"
       x2="50.4808"
       y2="128.192"
       gradientTransform="matrix(-2.23738,0,0,-2.23738,131.589,569.618)" />
    <linearGradient
       id="linearGradient1061"
       inkscape:collect="always">
      <stop
         id="stop1055"
         offset="0"
         style="stop-color:#ffffff;stop-opacity:1" />
      <stop
         style="stop-color:#151336;stop-opacity:1"
         offset="0.688102"
         id="stop1057" />
      <stop
         id="stop1059"
         offset="1"
         style="stop-color:#11192e;stop-opacity:1" />
    </linearGradient>
  </defs>
  <sodipodi:namedview
     id="base"
     pagecolor="#ffffff"
     bordercolor="#666666"
     borderopacity="1.0"
     inkscape:pageopacity="0.0"
     inkscape:pageshadow="2"
     inkscape:zoom="0.989949"
     inkscape:cx="153.709"
     inkscape:cy="101.429"
     inkscape:document-units="mm"
     inkscape:current-layer="layer1"
     showgrid="false"
     inkscape:window-width="1864"
     inkscape:window-height="1016"
     inkscape:window-x="368"
     inkscape:window-y="1467"
     inkscape:window-maximized="1" />
  <metadata
     id="metadata1190">
    <rdf:RDF>
      <cc:Work
         rdf:about="">
        <dc:format>image/svg+xml</dc:format>
        <dc:type
           rdf:resource="http://purl.org/dc/dcmitype/StillImage" />
        <dc:title />
      </cc:Work>
    </rdf:RDF>
  </metadata>
  <g
     inkscape:label="Layer 1"
     inkscape:groupmode="layer"
     id="layer1"
     transform="translate(0,-272)">
    <g
       id="text4294-9-9-8-37-59-6-5-3-7"
       style="font-style:normal;font-weight:normal;font-size:3.386685px;line-height:0%;font-family:sans-serif;letter-spacing:0px;word-spacing:0px;fill:#000000;fill-opacity:1;stroke:none;stroke-width:0.282223px;stroke-linecap:butt;stroke-linejoin:miter;stroke-opacity:1"
       aria-label="RI"
       transform="matrix(2.23738,0,0,2.23738,-0.06594,-367.634)">
      <path
         inkscape:connector-curvature="0"
         id="path843"
         style="font-style:normal;font-variant:normal;font-weight:normal;font-stretch:normal;font-size:7.05557px;line-height:1.25;font-family:Roboto;-inkscape-font-specification:Roboto;font-variant-ligatures:normal;font-variant-position:normal;font-variant-caps:normal;font-variant-numeric:normal;font-variant-alternates:normal;font-feature-settings:normal;text-indent:0;text-align:start;text-decoration:none;text-decoration-line:none;text-decoration-style:solid;text-decoration-color:#000000;letter-spacing:0px;word-spacing:0px;text-transform:none;writing-mode:lr-tb;direction:ltr;text-orientation:mixed;dominant-baseline:auto;baseline-shift:baseline;text-anchor:start;white-space:normal;shape-padding:0;opacity:1;vector-effect:none;fill:#000000;fill-opacity:1;stroke:none;stroke-width:0.282223px;stroke-linecap:butt;stroke-linejoin:miter;stroke-miterlimit:4;stroke-dasharray:none;stroke-dashoffset:0;stroke-opacity:1"
         d="M 3.41272,294.096 2.32407,292.063 H 1.14585 V 294.096 H 0.48094 V 289.08 H 2.14148 Q 2.98553,289.08 3.44028,289.466 3.89848,289.852 3.89848,290.585 3.89848,291.054 3.64354,291.405 3.39205,291.753 2.94419,291.926 L 4.12241,294.055 V 294.096 Z M 1.14585,289.624 V 291.523 H 2.16215 Q 2.69614,291.523 2.96486,291.25 3.23702,290.975 3.23702,290.585 3.23702,290.151 2.97519,289.89 2.71681,289.624 2.14148,289.624 Z" />
      <path
         inkscape:connector-curvature="0"
         id="path845"
         style="font-style:normal;font-variant:normal;font-weight:normal;font-stretch:normal;font-size:7.05557px;line-height:1.25;font-family:Roboto;-inkscape-font-specification:Roboto;font-variant-ligatures:normal;font-variant-position:normal;font-variant-caps:normal;font-variant-numeric:normal;font-variant-alternates:normal;font-feature-settings:normal;text-indent:0;text-align:start;text-decoration:none;text-decoration-line:none;text-decoration-style:solid;text-decoration-color:#000000;letter-spacing:0px;word-spacing:0px;text-transform:none;writing-mode:lr-tb;direction:ltr;text-orientation:mixed;dominant-baseline:auto;baseline-shift:baseline;text-anchor:start;white-space:normal;shape-padding:0;opacity:1;vector-effect:none;fill:#000000;fill-opacity:1;stroke:none;stroke-width:0.282223px;stroke-linecap:butt;stroke-linejoin:miter;stroke-miterlimit:4;stroke-dasharray:none;stroke-dashoffset:0;stroke-opacity:1"
         d="M 5.5418,289.08 V 294.096 H 4.87689 V 289.08 Z" />
    </g>
    <g
       id="g153762-1-0-8-50-4-5-6-2"
       transform="matrix(0,1.3211,1.3211,0,-963.459,242.882)">
      <path
         style="opacity:1;fill:url(#radialGradient5561-8-5-3-7-8-9-50-2-2-7-0);fill-opacity:1;stroke:#4b4b32;stroke-width:0.5;stroke-miterlimit:4;stroke-dasharray:none;stroke-opacity:1"
         d="M 36.2825,749.948 C 36.3219,752.599 34.5596,753.986 32.098,754.158 29.6365,754.33 26.7055,753.389 26.4315,750.571 26.2233,748.431 27.5447,746.81 30.0062,746.638 32.4678,746.466 36.2249,746.073 36.2825,749.948 Z"
         id="path8378-1-5-3-5-3-8-3-9-62-0-4-2-2"
         inkscape:connector-curvature="0"
         sodipodi:nodetypes="sssss" />
      <path
         style="opacity:1;fill:url(#radialGradient5561-8-5-7-9-7-4-7-1-5-6);fill-opacity:1;stroke:none;stroke-width:0.5;stroke-miterlimit:4;stroke-dasharray:none;stroke-opacity:1"
         d="M 38.4742,743.959 C 38.3549,741.045 35.1595,739.669 31.0706,739.669 26.9816,739.669 24.2693,741.876 24.2144,744.597 24.1598,747.302 26.4005,749.342 30.4894,749.342 34.5783,749.342 38.6444,748.115 38.4742,743.959 Z"
         id="path8378-1-5-3-5-0-5-4-29-6-7-9-8"
         inkscape:connector-curvature="0"
         sodipodi:nodetypes="sssss" />
      <path
         sodipodi:nodetypes="csc"
         inkscape:connector-curvature="0"
         id="path7332-6-4-1-1-8-5-3-2-6-1-9"
         d="M 28.219,748.951 C 21.6388,746.997 24.1679,739.323 31.5207,739.473 39.363,739.633 41.244,747.172 34.5519,749.002"
         style="fill:none;fill-rule:evenodd;stroke:#4b4b32;stroke-width:0.5;stroke-linecap:butt;stroke-linejoin:miter;stroke-miterlimit:4;stroke-dasharray:none;stroke-opacity:1" />
    </g>
    <g
       id="g893"
       transform="matrix(-1,0,0,1,46.6864,0)">
      <path
         id="path11-7"
         d="M 26.0775,277.895 C 26.0348,279.184 25.8806,280.459 25.6088,281.719 25.4166,282.614 25.2385,283.511 25.2289,284.43 25.221,285.292 25.3354,286.14 25.4833,286.988 25.6564,287.979 25.8661,288.963 26.003,289.963 26.1238,290.854 26.1238,291.744 26.0014,292.637 25.8791,293.532 25.7025,294.407 25.4674,295.277 25.4213,295.443 25.4132,295.624 25.3754,295.792 25.3213,296.033 25.2085,296.118 24.9637,296.089 24.7508,296.065 24.5409,296.074 24.3295,296.094 24.15,296.107 24.0008,296.071 23.9055,295.879 23.7987,295.669 23.6003,295.543 23.3936,295.443 22.9915,295.241 22.5561,295.145 22.1285,295.024 21.7345,294.912 21.339,294.818 20.9544,294.677 19.8912,294.29 19.1732,293.548 18.8123,292.487 18.3339,291.084 18.3957,289.684 18.9996,288.323 19.4542,287.292 20.2648,286.63 21.2692,286.173 21.6934,285.979 22.1366,285.84 22.5751,285.683 22.7946,285.607 23.0076,285.515 23.1967,285.372 23.3667,285.247 23.4667,285.086 23.4701,284.867 23.4716,284.656 23.4985,284.45 23.4667,284.242 23.4396,284.072 23.3602,283.947 23.2141,283.858 22.9949,283.725 22.7564,283.636 22.5116,283.576 21.6155,283.356 20.8241,282.936 20.0995,282.372 19.2698,281.723 18.7519,280.891 18.5787,279.855 18.3894,278.725 18.4563,277.611 18.8282,276.517 18.8964,276.315 18.987,276.125 19.0823,275.935 19.3318,275.432 19.7151,275.076 20.2312,274.85 21.0718,274.478 21.9238,274.138 22.8183,273.921 23.1615,273.836 23.4542,273.677 23.694,273.411 23.8829,273.208 24.0914,273.02 24.3836,272.97 24.5807,272.937 24.7827,272.95 24.9828,272.957 25.0716,272.959 25.1622,272.964 25.2513,272.959 25.3387,272.95 25.3754,272.984 25.388,273.069 25.4848,273.762 25.6551,274.438 25.7882,275.125 25.9218,275.814 26.0348,276.508 26.076,277.208 26.0887,277.438 26.0775,277.664 26.0775,277.895 Z M 25.5913,290.453 C 25.5801,289.637 25.5247,288.921 25.3513,288.218 25.2244,287.706 25.0734,287.202 24.7857,286.753 24.5393,286.372 24.2167,286.102 23.7527,286.037 23.4795,286.001 23.2045,286.026 22.9394,286.093 22.0684,286.319 21.258,286.683 20.5362,287.216 19.8594,287.719 19.3971,288.381 19.1777,289.203 18.906,290.212 18.9139,291.227 19.1906,292.239 19.4336,293.131 19.9914,293.744 20.8575,294.078 21.1132,294.176 21.3741,294.257 21.6377,294.328 22.3608,294.525 23.0917,294.671 23.8466,294.633 24.2945,294.613 24.6429,294.416 24.8969,294.047 25.0541,293.821 25.1591,293.57 25.2289,293.301 25.4819,292.337 25.5627,291.348 25.5913,290.453 Z M 25.5898,279.15 C 25.5598,278.331 25.5278,277.785 25.4707,277.242 25.4166,276.72 25.3466,276.203 25.1718,275.707 24.8875,274.899 24.4281,274.57 23.5732,274.579 22.5832,274.59 21.6426,274.832 20.7335,275.208 19.9151,275.543 19.405,276.161 19.1745,277.009 18.968,277.77 18.9235,278.539 19.0266,279.318 19.1508,280.244 19.5177,281.054 20.1901,281.716 20.5125,282.032 20.8924,282.262 21.2913,282.461 21.8983,282.763 22.5102,283.061 23.187,283.168 23.8576,283.278 24.401,283.061 24.7794,282.477 24.8781,282.327 24.9637,282.168 25.032,282.003 25.4437,281.003 25.6039,279.956 25.5898,279.15 Z"
         inkscape:connector-curvature="0"
         style="fill:#3aeb54;fill-opacity:1;stroke:#2b290f;stroke-width:0.111869;stroke-miterlimit:4;stroke-dasharray:none;stroke-opacity:1" />
      <path
         id="path933-3"
         d="M 23.8464,294.642 C 24.2943,294.622 24.6422,294.425 24.8964,294.055 25.0537,293.83 25.1584,293.579 25.2282,293.31 25.4813,292.346 25.5625,291.357 25.5911,290.462 25.5799,289.646 25.524,288.93 25.3506,288.227 25.2237,287.715 25.0732,287.211 24.7852,286.762 24.5391,286.381 24.2169,286.111 23.7529,286.046 23.4797,286.01 23.2041,286.034 22.9389,286.102 22.0679,286.328 21.2582,286.692 20.5362,287.225 19.8594,287.728 19.3974,288.39 19.1779,289.212 18.9063,290.221 18.9137,291.236 19.1904,292.248 19.4334,293.14 19.9914,293.751 20.8577,294.087 21.1134,294.185 21.3734,294.266 21.637,294.337 22.3601,294.534 23.0915,294.68 23.8464,294.642 Z"
         style="opacity:1;vector-effect:none;fill:url(#linearGradient1185);fill-opacity:1;stroke:#000000;stroke-width:0.070726;stroke-linecap:butt;stroke-linejoin:miter;stroke-miterlimit:4;stroke-dasharray:none;stroke-dashoffset:0;stroke-opacity:0.392157;paint-order:normal"
         inkscape:connector-curvature="0" />
      <path
         id="rect919-6"
         d="M 23.4325,283.202 C 23.9909,283.227 24.4485,282.996 24.7796,282.486 24.8783,282.336 24.9633,282.177 25.0315,282.012 25.4432,281.012 25.6041,279.964 25.59,279.159 25.56,278.34 25.528,277.794 25.471,277.251 25.4168,276.729 25.3461,276.212 25.1716,275.716 24.8872,274.908 24.4286,274.579 23.5737,274.588 22.5836,274.599 21.6419,274.841 20.7329,275.217 19.9144,275.552 19.4048,276.17 19.1743,277.018 18.968,277.779 18.9233,278.548 19.0262,279.327 19.1506,280.253 19.5168,281.063 20.1894,281.725 20.5118,282.041 20.8924,282.271 21.2913,282.47 21.8983,282.772 22.5107,283.07 23.1875,283.177 23.2712,283.191 23.3528,283.2 23.4325,283.202 Z"
         style="opacity:1;vector-effect:none;fill:url(#linearGradient1099-2);fill-opacity:1;stroke:#000000;stroke-width:0.070726;stroke-linecap:butt;stroke-linejoin:miter;stroke-miterlimit:4;stroke-dasharray:none;stroke-dashoffset:0;stroke-opacity:0.392157;paint-order:normal"
         inkscape:connector-curvature="0" />
    </g>
    <g
       id="text4294-9-9-8-37-59-6-5-3-7-3"
       style="font-style:normal;font-weight:normal;font-size:3.386687px;line-height:0%;font-family:sans-serif;letter-spacing:0px;word-spacing:0px;fill:#000000;fill-opacity:1;stroke:none;stroke-width:0.282223px;stroke-linecap:butt;stroke-linejoin:miter;stroke-opacity:1"
       aria-label="SS"
       transform="matrix(2.23738,0,0,2.23738,-0.06594,-367.634)">
      <path
         inkscape:connector-curvature="0"
         id="path848"
         style="font-style:normal;font-variant:normal;font-weight:normal;font-stretch:normal;font-size:7.055574px;line-height:1.25;font-family:Roboto;-inkscape-font-specification:Roboto;font-variant-ligatures:normal;font-variant-position:normal;font-variant-caps:normal;font-variant-numeric:normal;font-variant-alternates:normal;font-feature-settings:normal;text-indent:0;text-align:start;text-decoration:none;text-decoration-line:none;text-decoration-style:solid;text-decoration-color:#000000;letter-spacing:0px;word-spacing:0px;text-transform:none;writing-mode:lr-tb;direction:ltr;text-orientation:mixed;dominant-baseline:auto;baseline-shift:baseline;text-anchor:start;white-space:normal;shape-padding:0;opacity:1;vector-effect:none;fill:#000000;fill-opacity:1;stroke:none;stroke-width:0.282223px;stroke-linecap:butt;stroke-linejoin:miter;stroke-miterlimit:4;stroke-dasharray:none;stroke-dashoffset:0;stroke-opacity:1"
         d="M 17.9709,292.759 Q 17.9709,292.415 17.7367,292.208 17.5058,292.001 16.7617,291.784 16.0175,291.564 15.5835,291.226 15.1528,290.885 15.1528,290.306 15.1528,289.721 15.6179,289.331 16.0865,288.942 16.8582,288.942 17.7057,288.942 18.1638,289.407 18.6255,289.872 18.6255,290.458 H 17.964 Q 17.964,290.038 17.6919,289.762 17.4197,289.486 16.8582,289.486 16.3276,289.486 16.0727,289.721 15.8177,289.951 15.8177,290.299 15.8177,290.613 16.0865,290.823 16.3586,291.03 16.9684,291.202 17.84,291.447 18.2396,291.808 18.6393,292.167 18.6393,292.752 18.6393,293.366 18.1604,293.731 17.6815,294.096 16.8892,294.096 16.4275,294.096 15.99,293.924 15.5559,293.751 15.2734,293.414 14.9944,293.073 14.9944,292.573 H 15.6558 Q 15.6558,293.086 16.0313,293.321 16.4068,293.555 16.8892,293.555 17.4094,293.555 17.6884,293.341 17.9709,293.124 17.9709,292.759 Z" />
      <path
         inkscape:connector-curvature="0"
         id="path850"
         style="font-style:normal;font-variant:normal;font-weight:normal;font-stretch:normal;font-size:7.055574px;line-height:1.25;font-family:Roboto;-inkscape-font-specification:Roboto;font-variant-ligatures:normal;font-variant-position:normal;font-variant-caps:normal;font-variant-numeric:normal;font-variant-alternates:normal;font-feature-settings:normal;text-indent:0;text-align:start;text-decoration:none;text-decoration-line:none;text-decoration-style:solid;text-decoration-color:#000000;letter-spacing:0px;word-spacing:0px;text-transform:none;writing-mode:lr-tb;direction:ltr;text-orientation:mixed;dominant-baseline:auto;baseline-shift:baseline;text-anchor:start;white-space:normal;shape-padding:0;opacity:1;vector-effect:none;fill:#000000;fill-opacity:1;stroke:none;stroke-width:0.282223px;stroke-linecap:butt;stroke-linejoin:miter;stroke-miterlimit:4;stroke-dasharray:none;stroke-dashoffset:0;stroke-opacity:1"
         d="M 22.1602,292.759 Q 22.1602,292.415 21.9259,292.208 21.6951,292.001 20.9509,291.784 20.2068,291.564 19.7727,291.226 19.3421,290.885 19.3421,290.306 19.3421,289.721 19.8072,289.331 20.2757,288.942 21.0474,288.942 21.8949,288.942 22.3531,289.407 22.8147,289.872 22.8147,290.458 H 22.1533 Q 22.1533,290.038 21.8811,289.762 21.609,289.486 21.0474,289.486 20.5169,289.486 20.2619,289.721 20.007,289.951 20.007,290.299 20.007,290.613 20.2757,290.823 20.5479,291.03 21.1576,291.202 22.0293,291.447 22.4289,291.808 22.8285,292.167 22.8285,292.752 22.8285,293.366 22.3497,293.731 21.8708,294.096 21.0784,294.096 20.6168,294.096 20.1792,293.924 19.7452,293.751 19.4627,293.414 19.1836,293.073 19.1836,292.573 H 19.8451 Q 19.8451,293.086 20.2206,293.321 20.5961,293.555 21.0784,293.555 21.5986,293.555 21.8777,293.341 22.1602,293.124 22.1602,292.759 Z" />
    </g>
  </g>
</svg>
