<?xml version="1.0" encoding="UTF-8" standalone="no"?>
<!DOCTYPE svg PUBLIC "-//W3C//DTD SVG 1.1//EN"
 "http://www.w3.org/Graphics/SVG/1.1/DTD/svg11.dtd">
<!-- Generated by graphviz version 2.40.1 (20161225.0304)
 -->
<!-- Title: snakemake_dag Pages: 1 -->
<svg width="534pt" height="620pt"
 viewBox="0.00 0.00 534.00 620.00" xmlns="http://www.w3.org/2000/svg" xmlns:xlink="http://www.w3.org/1999/xlink">
<g id="graph0" class="graph" transform="scale(1 1) rotate(0) translate(4 616)">
<title>snakemake_dag</title>
<polygon fill="#ffffff" stroke="transparent" points="-4,4 -4,-616 530,-616 530,4 -4,4"/>
<!-- 0 -->
<g id="node1" class="node">
<title>0</title>
<path fill="none" stroke="#d8ac56" stroke-width="2" d="M205,-36C205,-36 175,-36 175,-36 169,-36 163,-30 163,-24 163,-24 163,-12 163,-12 163,-6 169,0 175,0 175,0 205,0 205,0 211,0 217,-6 217,-12 217,-12 217,-24 217,-24 217,-30 211,-36 205,-36"/>
<text text-anchor="middle" x="190" y="-15.5" font-family="sans" font-size="10.00" fill="#000000">all</text>
</g>
<!-- 1 -->
<g id="node2" class="node">
<title>1</title>
<path fill="none" stroke="#56a9d8" stroke-width="2" d="M148.5,-612C148.5,-612 109.5,-612 109.5,-612 103.5,-612 97.5,-606 97.5,-600 97.5,-600 97.5,-588 97.5,-588 97.5,-582 103.5,-576 109.5,-576 109.5,-576 148.5,-576 148.5,-576 154.5,-576 160.5,-582 160.5,-588 160.5,-588 160.5,-600 160.5,-600 160.5,-606 154.5,-612 148.5,-612"/>
<text text-anchor="middle" x="129" y="-591.5" font-family="sans" font-size="10.00" fill="#000000">reference</text>
</g>
<!-- 1&#45;&gt;0 -->
<g id="edge1" class="edge">
<title>1&#45;&gt;0</title>
<path fill="none" stroke="#c0c0c0" stroke-width="2" d="M97.443,-576.9174C59.2528,-553.6765 0,-508.2343 0,-450 0,-450 0,-450 0,-162 0,-116.4558 14.7293,-101.9965 49,-72 78.6831,-46.019 122.1923,-31.9233 153.015,-24.7174"/>
<polygon fill="#c0c0c0" stroke="#c0c0c0" stroke-width="2" points="153.9303,-28.0998 162.9433,-22.5307 152.4245,-21.2637 153.9303,-28.0998"/>
</g>
<!-- 2 -->
<g id="node3" class="node">
<title>2</title>
<path fill="none" stroke="#d85656" stroke-width="2" d="M160.5,-540C160.5,-540 97.5,-540 97.5,-540 91.5,-540 85.5,-534 85.5,-528 85.5,-528 85.5,-516 85.5,-516 85.5,-510 91.5,-504 97.5,-504 97.5,-504 160.5,-504 160.5,-504 166.5,-504 172.5,-510 172.5,-516 172.5,-516 172.5,-528 172.5,-528 172.5,-534 166.5,-540 160.5,-540"/>
<text text-anchor="middle" x="129" y="-519.5" font-family="sans" font-size="10.00" fill="#000000">contamination</text>
</g>
<!-- 1&#45;&gt;2 -->
<g id="edge12" class="edge">
<title>1&#45;&gt;2</title>
<path fill="none" stroke="#c0c0c0" stroke-width="2" d="M129,-575.8314C129,-568.131 129,-558.9743 129,-550.4166"/>
<polygon fill="#c0c0c0" stroke="#c0c0c0" stroke-width="2" points="132.5001,-550.4132 129,-540.4133 125.5001,-550.4133 132.5001,-550.4132"/>
</g>
<!-- 3 -->
<g id="node4" class="node">
<title>3</title>
<path fill="none" stroke="#d88556" stroke-width="2" d="M411,-540C411,-540 345,-540 345,-540 339,-540 333,-534 333,-528 333,-528 333,-516 333,-516 333,-510 339,-504 345,-504 345,-504 411,-504 411,-504 417,-504 423,-510 423,-516 423,-516 423,-528 423,-528 423,-534 417,-540 411,-540"/>
<text text-anchor="middle" x="378" y="-519.5" font-family="sans" font-size="10.00" fill="#000000">prep_reference</text>
</g>
<!-- 1&#45;&gt;3 -->
<g id="edge13" class="edge">
<title>1&#45;&gt;3</title>
<path fill="none" stroke="#c0c0c0" stroke-width="2" d="M160.536,-584.8812C201.3902,-573.0679 273.2731,-552.2825 323.1568,-537.8583"/>
<polygon fill="#c0c0c0" stroke="#c0c0c0" stroke-width="2" points="324.1903,-541.2029 332.8245,-535.0628 322.2458,-534.4784 324.1903,-541.2029"/>
</g>
<!-- 2&#45;&gt;0 -->
<g id="edge2" class="edge">
<title>2&#45;&gt;0</title>
<path fill="none" stroke="#c0c0c0" stroke-width="2" d="M102.9547,-503.9806C90.8808,-494.4846 77.2017,-481.9238 68,-468 44.7534,-432.8237 38,-420.1637 38,-378 38,-378 38,-378 38,-162 38,-116.6667 53.768,-103.878 86,-72 104.9411,-53.267 131.7155,-39.5696 153.354,-30.6576"/>
<polygon fill="#c0c0c0" stroke="#c0c0c0" stroke-width="2" points="154.8687,-33.8227 162.8881,-26.8988 152.3012,-27.3105 154.8687,-33.8227"/>
</g>
<!-- 4 -->
<g id="node5" class="node">
<title>4</title>
<path fill="none" stroke="#afd856" stroke-width="2" d="M201,-468C201,-468 171,-468 171,-468 165,-468 159,-462 159,-456 159,-456 159,-444 159,-444 159,-438 165,-432 171,-432 171,-432 201,-432 201,-432 207,-432 213,-438 213,-444 213,-444 213,-456 213,-456 213,-462 207,-468 201,-468"/>
<text text-anchor="middle" x="186" y="-447.5" font-family="sans" font-size="10.00" fill="#000000">index</text>
</g>
<!-- 2&#45;&gt;4 -->
<g id="edge14" class="edge">
<title>2&#45;&gt;4</title>
<path fill="none" stroke="#c0c0c0" stroke-width="2" d="M143.3835,-503.8314C149.9486,-495.5386 157.8507,-485.557 165.0578,-476.4533"/>
<polygon fill="#c0c0c0" stroke="#c0c0c0" stroke-width="2" points="167.9599,-478.4262 171.4228,-468.4133 162.4716,-474.0813 167.9599,-478.4262"/>
</g>
<!-- 3&#45;&gt;0 -->
<g id="edge3" class="edge">
<title>3&#45;&gt;0</title>
<path fill="none" stroke="#c0c0c0" stroke-width="2" d="M418.8334,-503.7994C462.6405,-481.1648 526,-438.0483 526,-378 526,-378 526,-378 526,-162 526,-93.9028 463.6509,-100.9206 402,-72 344.1855,-44.8791 270.8649,-30.0896 227.3456,-23.1324"/>
<polygon fill="#c0c0c0" stroke="#c0c0c0" stroke-width="2" points="227.6309,-19.6351 217.214,-21.5687 226.5631,-26.5532 227.6309,-19.6351"/>
</g>
<!-- 3&#45;&gt;4 -->
<g id="edge15" class="edge">
<title>3&#45;&gt;4</title>
<path fill="none" stroke="#c0c0c0" stroke-width="2" d="M332.9845,-505.1192C299.4796,-492.5549 254.3025,-475.6134 222.9147,-463.843"/>
<polygon fill="#c0c0c0" stroke="#c0c0c0" stroke-width="2" points="223.8329,-460.4494 213.2406,-460.2152 221.375,-467.0037 223.8329,-460.4494"/>
</g>
<!-- 8 -->
<g id="node9" class="node">
<title>8</title>
<path fill="none" stroke="#59d856" stroke-width="2" d="M299.5,-252C299.5,-252 230.5,-252 230.5,-252 224.5,-252 218.5,-246 218.5,-240 218.5,-240 218.5,-228 218.5,-228 218.5,-222 224.5,-216 230.5,-216 230.5,-216 299.5,-216 299.5,-216 305.5,-216 311.5,-222 311.5,-228 311.5,-228 311.5,-240 311.5,-240 311.5,-246 305.5,-252 299.5,-252"/>
<text text-anchor="middle" x="265" y="-231.5" font-family="sans" font-size="10.00" fill="#000000">select_footprint</text>
</g>
<!-- 3&#45;&gt;8 -->
<g id="edge21" class="edge">
<title>3&#45;&gt;8</title>
<path fill="none" stroke="#c0c0c0" stroke-width="2" d="M371.2172,-503.7088C356.5014,-464.1739 320.3596,-367.876 288,-288 284.535,-279.447 280.6432,-270.1875 277.0602,-261.7917"/>
<polygon fill="#c0c0c0" stroke="#c0c0c0" stroke-width="2" points="280.2009,-260.2352 273.04,-252.4268 273.7685,-262.9965 280.2009,-260.2352"/>
</g>
<!-- 9 -->
<g id="node10" class="node">
<title>9</title>
<path fill="none" stroke="#56d882" stroke-width="2" d="M448,-252C448,-252 418,-252 418,-252 412,-252 406,-246 406,-240 406,-240 406,-228 406,-228 406,-222 412,-216 418,-216 418,-216 448,-216 448,-216 454,-216 460,-222 460,-228 460,-228 460,-240 460,-240 460,-246 454,-252 448,-252"/>
<text text-anchor="middle" x="433" y="-231.5" font-family="sans" font-size="10.00" fill="#000000">quant</text>
</g>
<!-- 3&#45;&gt;9 -->
<g id="edge23" class="edge">
<title>3&#45;&gt;9</title>
<path fill="none" stroke="#c0c0c0" stroke-width="2" d="M383.1632,-503.5933C385.9818,-493.1936 389.4136,-479.9258 392,-468 408.0299,-394.0853 422.1326,-305.9935 428.8438,-261.9631"/>
<polygon fill="#c0c0c0" stroke="#c0c0c0" stroke-width="2" points="432.3153,-262.4141 430.35,-252.0031 425.394,-261.3673 432.3153,-262.4141"/>
</g>
<!-- 10 -->
<g id="node11" class="node">
<title>10</title>
<path fill="none" stroke="#56d8a9" stroke-width="2" d="M355.5,-180C355.5,-180 324.5,-180 324.5,-180 318.5,-180 312.5,-174 312.5,-168 312.5,-168 312.5,-156 312.5,-156 312.5,-150 318.5,-144 324.5,-144 324.5,-144 355.5,-144 355.5,-144 361.5,-144 367.5,-150 367.5,-156 367.5,-156 367.5,-168 367.5,-168 367.5,-174 361.5,-180 355.5,-180"/>
<text text-anchor="middle" x="340" y="-159.5" font-family="sans" font-size="10.00" fill="#000000">riboprof</text>
</g>
<!-- 3&#45;&gt;10 -->
<g id="edge25" class="edge">
<title>3&#45;&gt;10</title>
<path fill="none" stroke="#c0c0c0" stroke-width="2" d="M378,-503.8146C378,-476.4983 378,-423.25 378,-378 378,-378 378,-378 378,-306 378,-264.3681 362.9672,-218.14 351.8119,-189.567"/>
<polygon fill="#c0c0c0" stroke="#c0c0c0" stroke-width="2" points="355.0368,-188.2055 348.0588,-180.2332 348.5422,-190.817 355.0368,-188.2055"/>
</g>
<!-- 11 -->
<g id="node12" class="node">
<title>11</title>
<path fill="none" stroke="#5682d8" stroke-width="2" d="M355,-108C355,-108 325,-108 325,-108 319,-108 313,-102 313,-96 313,-96 313,-84 313,-84 313,-78 319,-72 325,-72 325,-72 355,-72 355,-72 361,-72 367,-78 367,-84 367,-84 367,-96 367,-96 367,-102 361,-108 355,-108"/>
<text text-anchor="middle" x="340" y="-87.5" font-family="sans" font-size="10.00" fill="#000000">riboss</text>
</g>
<!-- 3&#45;&gt;11 -->
<g id="edge29" class="edge">
<title>3&#45;&gt;11</title>
<path fill="none" stroke="#c0c0c0" stroke-width="2" d="M404.6279,-503.9905C437.1827,-479.592 488,-432.7396 488,-378 488,-378 488,-378 488,-234 488,-171.8777 420.1883,-127.877 376.3678,-105.9287"/>
<polygon fill="#c0c0c0" stroke="#c0c0c0" stroke-width="2" points="377.6704,-102.6706 367.1455,-101.4551 374.6152,-108.9687 377.6704,-102.6706"/>
</g>
<!-- 4&#45;&gt;0 -->
<g id="edge4" class="edge">
<title>4&#45;&gt;0</title>
<path fill="none" stroke="#c0c0c0" stroke-width="2" d="M185.7127,-431.8334C184.922,-380.8028 182.724,-231.8032 182,-108 181.9064,-92.0003 180.8244,-87.9568 182,-72 182.6169,-63.6264 183.7649,-54.5812 185.0026,-46.3322"/>
<polygon fill="#c0c0c0" stroke="#c0c0c0" stroke-width="2" points="188.4648,-46.8463 186.585,-36.4196 181.5523,-45.7428 188.4648,-46.8463"/>
</g>
<!-- 6 -->
<g id="node7" class="node">
<title>6</title>
<path fill="none" stroke="#56d8d8" stroke-width="2" d="M146,-396C146,-396 116,-396 116,-396 110,-396 104,-390 104,-384 104,-384 104,-372 104,-372 104,-366 110,-360 116,-360 116,-360 146,-360 146,-360 152,-360 158,-366 158,-372 158,-372 158,-384 158,-384 158,-390 152,-396 146,-396"/>
<text text-anchor="middle" x="131" y="-375.5" font-family="sans" font-size="10.00" fill="#000000">filter</text>
</g>
<!-- 4&#45;&gt;6 -->
<g id="edge17" class="edge">
<title>4&#45;&gt;6</title>
<path fill="none" stroke="#c0c0c0" stroke-width="2" d="M172.1212,-431.8314C165.7864,-423.5386 158.1616,-413.557 151.2074,-404.4533"/>
<polygon fill="#c0c0c0" stroke="#c0c0c0" stroke-width="2" points="153.9175,-402.2353 145.0657,-396.4133 148.3548,-406.4847 153.9175,-402.2353"/>
</g>
<!-- 7 -->
<g id="node8" class="node">
<title>7</title>
<path fill="none" stroke="#d6d856" stroke-width="2" d="M267,-324C267,-324 225,-324 225,-324 219,-324 213,-318 213,-312 213,-312 213,-300 213,-300 213,-294 219,-288 225,-288 225,-288 267,-288 267,-288 273,-288 279,-294 279,-300 279,-300 279,-312 279,-312 279,-318 273,-324 267,-324"/>
<text text-anchor="middle" x="246" y="-303.5" font-family="sans" font-size="10.00" fill="#000000">alignment</text>
</g>
<!-- 4&#45;&gt;7 -->
<g id="edge19" class="edge">
<title>4&#45;&gt;7</title>
<path fill="none" stroke="#c0c0c0" stroke-width="2" d="M193.599,-431.7623C203.9231,-406.9846 222.4703,-362.4714 234.5025,-333.5939"/>
<polygon fill="#c0c0c0" stroke="#c0c0c0" stroke-width="2" points="237.8472,-334.6666 238.4627,-324.0896 231.3857,-331.9742 237.8472,-334.6666"/>
</g>
<!-- 5 -->
<g id="node6" class="node">
<title>5</title>
<path fill="none" stroke="#80d856" stroke-width="2" d="M119,-468C119,-468 89,-468 89,-468 83,-468 77,-462 77,-456 77,-456 77,-444 77,-444 77,-438 83,-432 89,-432 89,-432 119,-432 119,-432 125,-432 131,-438 131,-444 131,-444 131,-456 131,-456 131,-462 125,-468 119,-468"/>
<text text-anchor="middle" x="104" y="-447.5" font-family="sans" font-size="10.00" fill="#000000">fastq</text>
</g>
<!-- 5&#45;&gt;0 -->
<g id="edge5" class="edge">
<title>5&#45;&gt;0</title>
<path fill="none" stroke="#c0c0c0" stroke-width="2" d="M98.0619,-431.5823C89.8428,-404.4106 76,-351.8428 76,-306 76,-306 76,-306 76,-162 76,-118.0449 89.338,-106.1594 117,-72 127.237,-59.3584 141.0818,-48.1345 153.9627,-39.2392"/>
<polygon fill="#c0c0c0" stroke="#c0c0c0" stroke-width="2" points="156.2709,-41.9082 162.6701,-33.4642 152.4019,-36.0747 156.2709,-41.9082"/>
</g>
<!-- 5&#45;&gt;6 -->
<g id="edge16" class="edge">
<title>5&#45;&gt;6</title>
<path fill="none" stroke="#c0c0c0" stroke-width="2" d="M110.8132,-431.8314C113.7644,-423.9617 117.2858,-414.5712 120.555,-405.8533"/>
<polygon fill="#c0c0c0" stroke="#c0c0c0" stroke-width="2" points="123.8609,-407.0055 124.095,-396.4133 117.3066,-404.5476 123.8609,-407.0055"/>
</g>
<!-- 6&#45;&gt;0 -->
<g id="edge6" class="edge">
<title>6&#45;&gt;0</title>
<path fill="none" stroke="#c0c0c0" stroke-width="2" d="M127.4776,-359.8955C122.4982,-332.6824 114,-279.5642 114,-234 114,-234 114,-234 114,-162 114,-120.6022 117.6618,-108.0574 138,-72 143.9346,-61.4787 152.4009,-51.4885 160.7833,-43.0273"/>
<polygon fill="#c0c0c0" stroke="#c0c0c0" stroke-width="2" points="163.2919,-45.4705 168.0622,-36.0103 158.4336,-40.4309 163.2919,-45.4705"/>
</g>
<!-- 6&#45;&gt;7 -->
<g id="edge18" class="edge">
<title>6&#45;&gt;7</title>
<path fill="none" stroke="#c0c0c0" stroke-width="2" d="M158.2534,-360.937C173.1605,-351.6038 191.8594,-339.8967 208.1612,-329.6904"/>
<polygon fill="#c0c0c0" stroke="#c0c0c0" stroke-width="2" points="210.3134,-332.4724 216.9319,-324.1992 206.5987,-326.5393 210.3134,-332.4724"/>
</g>
<!-- 7&#45;&gt;0 -->
<g id="edge7" class="edge">
<title>7&#45;&gt;0</title>
<path fill="none" stroke="#c0c0c0" stroke-width="2" d="M230.4674,-287.7676C222.9294,-277.8468 214.5405,-264.9746 210,-252 185.2406,-181.2492 185.7279,-91.4382 187.9698,-46.4297"/>
<polygon fill="#c0c0c0" stroke="#c0c0c0" stroke-width="2" points="191.4754,-46.4281 188.547,-36.2461 184.4867,-46.032 191.4754,-46.4281"/>
</g>
<!-- 7&#45;&gt;8 -->
<g id="edge20" class="edge">
<title>7&#45;&gt;8</title>
<path fill="none" stroke="#c0c0c0" stroke-width="2" d="M250.7945,-287.8314C252.8489,-280.0463 255.296,-270.7729 257.5756,-262.1347"/>
<polygon fill="#c0c0c0" stroke="#c0c0c0" stroke-width="2" points="260.9735,-262.9753 260.1409,-252.4133 254.2052,-261.1892 260.9735,-262.9753"/>
</g>
<!-- 7&#45;&gt;9 -->
<g id="edge22" class="edge">
<title>7&#45;&gt;9</title>
<path fill="none" stroke="#c0c0c0" stroke-width="2" d="M279.0014,-293.2936C311.8298,-280.6538 362.0955,-261.3001 396.1962,-248.1704"/>
<polygon fill="#c0c0c0" stroke="#c0c0c0" stroke-width="2" points="397.7153,-251.3361 405.7898,-244.4766 395.2,-244.8036 397.7153,-251.3361"/>
</g>
<!-- 7&#45;&gt;10 -->
<g id="edge24" class="edge">
<title>7&#45;&gt;10</title>
<path fill="none" stroke="#c0c0c0" stroke-width="2" d="M279.2591,-289.4394C294.2065,-280.36 310.753,-267.7289 321,-252 333.0064,-233.5706 337.5932,-208.9198 339.2689,-190.0769"/>
<polygon fill="#c0c0c0" stroke="#c0c0c0" stroke-width="2" points="342.7667,-190.2251 339.9411,-180.014 335.7822,-189.7585 342.7667,-190.2251"/>
</g>
<!-- 8&#45;&gt;0 -->
<g id="edge8" class="edge">
<title>8&#45;&gt;0</title>
<path fill="none" stroke="#c0c0c0" stroke-width="2" d="M258.7345,-215.9555C245.6371,-178.235 215.2843,-90.8188 199.6666,-45.8399"/>
<polygon fill="#c0c0c0" stroke="#c0c0c0" stroke-width="2" points="202.8869,-44.4437 196.3004,-36.1451 196.2742,-46.7399 202.8869,-44.4437"/>
</g>
<!-- 8&#45;&gt;10 -->
<g id="edge26" class="edge">
<title>8&#45;&gt;10</title>
<path fill="none" stroke="#c0c0c0" stroke-width="2" d="M283.9257,-215.8314C292.9857,-207.1337 303.9809,-196.5783 313.8265,-187.1265"/>
<polygon fill="#c0c0c0" stroke="#c0c0c0" stroke-width="2" points="316.2904,-189.613 321.0804,-180.1628 311.4426,-184.5633 316.2904,-189.613"/>
</g>
<!-- 9&#45;&gt;0 -->
<g id="edge9" class="edge">
<title>9&#45;&gt;0</title>
<path fill="none" stroke="#c0c0c0" stroke-width="2" d="M431.8682,-215.8019C428.7992,-182.4201 417.4829,-111.2317 376,-72 354.5486,-51.7127 274.9991,-33.8476 227.1561,-24.6285"/>
<polygon fill="#c0c0c0" stroke="#c0c0c0" stroke-width="2" points="227.6483,-21.1596 217.1722,-22.7412 226.348,-28.0378 227.6483,-21.1596"/>
</g>
<!-- 9&#45;&gt;10 -->
<g id="edge27" class="edge">
<title>9&#45;&gt;10</title>
<path fill="none" stroke="#c0c0c0" stroke-width="2" d="M409.5322,-215.8314C397.9673,-206.8779 383.8596,-195.9558 371.3817,-186.2955"/>
<polygon fill="#c0c0c0" stroke="#c0c0c0" stroke-width="2" points="373.5102,-183.5171 363.4603,-180.1628 369.225,-189.0521 373.5102,-183.5171"/>
</g>
<!-- 10&#45;&gt;0 -->
<g id="edge10" class="edge">
<title>10&#45;&gt;0</title>
<path fill="none" stroke="#c0c0c0" stroke-width="2" d="M321.1761,-143.6696C302.4297,-125.4414 272.8035,-96.707 247,-72 237.1334,-62.5527 226.257,-52.2271 216.6734,-43.1585"/>
<polygon fill="#c0c0c0" stroke="#c0c0c0" stroke-width="2" points="218.9799,-40.5224 209.3087,-36.1959 214.1709,-45.6091 218.9799,-40.5224"/>
</g>
<!-- 10&#45;&gt;11 -->
<g id="edge28" class="edge">
<title>10&#45;&gt;11</title>
<path fill="none" stroke="#c0c0c0" stroke-width="2" d="M340,-143.8314C340,-136.131 340,-126.9743 340,-118.4166"/>
<polygon fill="#c0c0c0" stroke="#c0c0c0" stroke-width="2" points="343.5001,-118.4132 340,-108.4133 336.5001,-118.4133 343.5001,-118.4132"/>
</g>
<!-- 11&#45;&gt;0 -->
<g id="edge11" class="edge">
<title>11&#45;&gt;0</title>
<path fill="none" stroke="#c0c0c0" stroke-width="2" d="M312.8361,-76.9613C288.5938,-65.325 252.9075,-48.1956 226.2384,-35.3944"/>
<polygon fill="#c0c0c0" stroke="#c0c0c0" stroke-width="2" points="227.7446,-32.2351 217.2148,-31.0631 224.7155,-38.5458 227.7446,-32.2351"/>
</g>
</g>
</svg>
